<?xml version="1.0" standalone="no"?>
<!DOCTYPE svg PUBLIC "-//W3C//DTD SVG 20010904//EN"
 "http://www.w3.org/TR/2001/REC-SVG-20010904/DTD/svg10.dtd">
<svg version="1.0" xmlns="http://www.w3.org/2000/svg"
 width="250.000000pt" height="250.000000pt" viewBox="0 0 250.000000 250.000000"
 preserveAspectRatio="xMidYMid meet">
<metadata>
Created by potrace 1.11, written by Peter Selinger 2001-2013
</metadata>
<g transform="translate(0.000000,250.000000) scale(0.100000,-0.100000)"
fill="#000000" stroke="none">
<path d="M1297 2429 c-70 -38 -176 -97 -235 -132 -59 -35 -127 -75 -152 -89
-25 -14 -61 -34 -80 -45 -19 -11 -62 -36 -95 -55 -33 -19 -168 -97 -300 -173
-132 -76 -258 -149 -279 -161 l-40 -23 0 -598 c-1 -520 1 -600 14 -610 21 -17
41 -16 33 2 -4 12 2 11 30 -5 19 -11 37 -29 39 -38 4 -15 134 -95 343 -212 22
-12 77 -44 123 -71 45 -27 87 -49 92 -49 6 0 10 -4 10 -10 0 -5 5 -10 11 -10
6 0 37 -16 69 -35 58 -35 87 -45 74 -24 -4 7 -3 10 2 7 49 -22 64 -34 64 -49
0 -10 11 -26 24 -35 24 -15 28 -14 93 24 94 55 138 80 208 117 89 47 638 365
655 379 8 6 40 25 70 41 30 16 69 37 85 47 17 10 41 23 55 30 14 7 56 32 94
54 l69 42 1 600 1 601 -25 13 c-51 25 -876 500 -890 512 -8 7 -20 15 -25 19
-6 3 -68 -26 -138 -64z"/>
</g>
</svg>
